<?xml version="1.0" encoding="utf-8"?>
<!-- Generator: Adobe Illustrator 15.0.2, SVG Export Plug-In . SVG Version: 6.00 Build 0)  -->
<!DOCTYPE svg PUBLIC "-//W3C//DTD SVG 1.1//EN" "http://www.w3.org/Graphics/SVG/1.1/DTD/svg11.dtd">
<svg version="1.1" id="Calque_1" xmlns="http://www.w3.org/2000/svg" xmlns:xlink="http://www.w3.org/1999/xlink" x="0px" y="0px"
	 width="600px" height="440px" viewBox="0 0 600 440" enable-background="new 0 0 600 440" xml:space="preserve">
<path opacity="0.75" fill="#060606" enable-background="new    " d="M105.13,0H24.456h-0.128c-4.332,0-8.088,3.101-8.787,7.239
	L8.68,32.991C7.878,36.978,4.223,40,0,40h600V0H105.13z"/>
<path opacity="0.75" fill="#060606" enable-background="new    " d="M590.9,112.927l-6.859-25.625
	c-0.697-4.138-4.457-7.302-8.787-7.302h-0.129H570v40h29.422C595.198,120,591.703,116.913,590.9,112.927z"/>
<path fill="#444444" d="M105.13,160H24.456h-0.128c-4.332,0-8.088,3.1-8.787,7.238l-6.86,25.752C7.878,196.979,4.223,200,0,200h600
	v-40H105.13z"/>
<path fill="#444444" d="M590.9,272.928l-6.859-25.623c-0.697-4.141-4.457-7.305-8.787-7.305h-0.129H570v40h29.422
	C595.198,280,591.703,276.915,590.9,272.928z"/>
<path fill="#005589" d="M105.13,320H24.456h-0.128c-4.332,0-8.088,3.102-8.787,7.238l-6.86,25.751C7.878,356.977,4.223,360,0,360
	h600v-40H105.13z"/>
<path fill="#005589" d="M590.9,432.928l-6.859-25.626c-0.697-4.138-4.457-7.302-8.787-7.302h-0.129H570v40h29.422
	C595.198,440,591.703,436.912,590.9,432.928z"/>
</svg>
